<?xml version="1.0" encoding="UTF-8"?>
<svg width="310px" height="110px" viewBox="0 0 310 110" version="1.1" xmlns="http://www.w3.org/2000/svg" xmlns:xlink="http://www.w3.org/1999/xlink">
    <title>Global / Logos / ServeCo / Modifier / Digital Platform</title>
    <g id="2.2.10-Carelon-Digital-Platform-Services" stroke="none" stroke-width="1" fill="none" fill-rule="evenodd">
        <g id="2.2.10-Carelon-Digital-Platforms" transform="translate(-485.000000, -876.000000)" fill-rule="nonzero">
            <g id="simplifying" transform="translate(0.000000, 779.000000)">
                <g id="Group-5" transform="translate(76.000000, 97.000000)">
                    <g id="Carelon_digital_platforms_h_sm_rgb" transform="translate(409.000000, 12.000000)">
                        <path d="M304.652596,47.7580233 C304.466262,47.4946192 304.074153,47.2686286 303.63041,47.2686286 C303.135033,47.2686286 302.826719,47.4871342 302.826719,47.8223797 C302.826719,48.7293319 305.128531,48.317761 305.128531,49.7829522 C305.128531,50.5103106 304.537339,50.9997054 303.617692,50.9997054 C302.845431,50.9997054 302.344059,50.6973854 302.061182,50.2977874 L302.479488,49.9056745 C302.755611,50.2663605 303.154475,50.4519406 303.623655,50.4519406 C304.189379,50.4519406 304.511173,50.2079905 304.511173,49.8218641 C304.511173,48.8191287 302.20936,49.2621264 302.20936,47.8418337 C302.20936,47.1788316 302.794526,46.7223623 303.649852,46.7223623 C304.292647,46.7223623 304.813493,47.0052243 305.064147,47.3599239 L304.652596,47.7580233 Z M307.890515,50.1122072 L309.421558,47.7250978 L309.421558,50.9218775 L310,50.9218775 L310,46.8001863 L309.40811,46.8001863 L307.929431,49.1603567 L306.444061,46.8001863 L305.775068,46.8001863 L305.775068,50.9218775 L306.353511,50.9218775 L306.353511,47.7250978 L307.890515,50.1122072 Z" id="Legal_Mark" fill="#5009B5"></path>
                        <path d="M110.373092,64.3887999 L115.653733,64.3887999 C120.860031,64.3887999 124.586065,67.6705476 124.586065,72.2848925 C124.586065,76.8992373 120.909509,80.180989 115.752434,80.180989 L110.373092,80.180989 L110.373092,64.3887999 Z M113.556142,67.2757428 L113.556142,77.2691765 L115.653733,77.2691765 C119.034186,77.2691765 121.279702,75.2951524 121.279702,72.2848925 C121.279702,69.2497669 119.034186,67.2757428 115.629121,67.2757428 L113.556142,67.2757428 Z M126.755716,65.005619 C126.755716,64.0432188 127.52046,63.2536092 128.507472,63.2536092 C129.469872,63.2536092 130.284094,64.0432188 130.284094,65.005619 C130.284094,65.9926311 129.469872,66.7822368 128.507472,66.7822368 C127.52046,66.7822368 126.755716,65.9926311 126.755716,65.005619 Z M127.002342,80.180989 L127.002342,68.3614561 L130.012602,68.3614561 L130.012602,70.8538518 L130.012602,80.180989 L127.002342,80.180989 Z M141.584248,68.3614561 L144.594761,68.3614561 L144.594761,79.3421556 C144.594761,84.030336 141.386845,85.3380636 138.475287,85.3380636 C136.30386,85.3380636 134.477761,84.7953338 133.342824,83.7834561 L134.872566,81.4394928 C135.464773,81.8835213 136.624576,82.5990416 138.302496,82.5990416 C140.325998,82.5990416 141.584248,81.5135821 141.584248,79.4900805 L141.584248,78.0836517 C140.794638,79.2680662 139.585612,80.0081984 137.981781,80.0081984 C134.946655,80.0081984 132.479117,77.5655338 132.479117,74.0122904 C132.479117,70.5823601 134.946655,68.1148299 137.981781,68.1148299 C139.585612,68.1148299 140.794638,68.7562609 141.584248,69.8668397 L141.584248,68.3614561 Z M141.584248,74.0122904 C141.584248,72.2602806 140.301386,70.8538518 138.549376,70.8538518 C136.797366,70.8538518 135.489639,72.2602806 135.489639,74.0122904 C135.489639,75.7889121 136.797366,77.170729 138.549376,77.170729 C140.301386,77.170729 141.584248,75.7640466 141.584248,74.0122904 Z M147.356619,65.005619 C147.356619,64.0432188 148.121363,63.2536092 149.108375,63.2536092 C150.070776,63.2536092 150.884997,64.0432188 150.884997,65.005619 C150.884997,65.9926311 150.070776,66.7822368 149.108375,66.7822368 C148.121363,66.7822368 147.356619,65.9926311 147.356619,65.005619 Z M147.603245,80.180989 L147.603245,68.3614561 L150.613505,68.3614561 L150.613505,70.8538518 L150.613505,80.180989 L147.603245,80.180989 Z M152.784171,68.3614561 L154.856896,68.3614561 L154.856896,65.3017226 L157.892021,65.3017226 L157.892021,68.3614561 L161.075072,68.3614561 L161.075072,71.0263887 L157.916633,71.0263887 L157.916633,76.0601502 C157.916633,77.170729 158.360662,77.6888469 159.248973,77.6888469 C159.816568,77.6888469 160.359298,77.441967 160.655655,77.0966397 L161.987995,79.3421556 C161.34631,79.9835866 160.235985,80.5017045 158.780079,80.5017045 C156.386638,80.5017045 154.856896,79.0211864 154.856896,76.1342395 L154.856896,71.0263887 L152.784171,71.0263887 L152.784171,68.3614561 L152.784171,68.3614561 Z M172.079115,68.3614561 L175.089628,68.3614561 L175.089628,80.180989 L172.079115,80.180989 L172.079115,78.5030685 C171.289505,79.7120948 170.055867,80.5017045 168.451782,80.5017045 C165.342821,80.5017045 162.801201,77.9603387 162.801201,74.2589166 C162.801201,70.7056732 165.194896,68.0407406 168.451782,68.0407406 C170.055867,68.0407406 171.289505,68.7562609 172.079115,69.9160635 L172.079115,68.3614561 Z M172.079115,74.2589166 C172.079115,72.3589818 170.771387,70.8538518 168.945542,70.8538518 C167.119442,70.8538518 165.811715,72.3589818 165.811715,74.2589166 C165.811715,76.1588514 167.119443,77.6888469 168.945542,77.6888469 C170.771387,77.6888469 172.079115,76.1588514 172.079115,74.2589166 Z M183.230575,80.2056008 C182.786293,80.3537795 182.218697,80.4524807 181.774669,80.4524807 C180.072136,80.4524807 178.344738,79.3667675 178.344738,76.3562538 L178.344738,63.2043855 L181.354998,63.2043855 L181.354998,76.4303431 C181.354998,77.3432659 181.87337,77.688847 182.4161,77.688847 C182.564278,77.688847 182.761681,77.6393695 182.909606,77.5655339 L183.230575,80.2056008 Z M191.149253,64.364188 L196.800088,64.364188 C200.624569,64.364188 203.141577,66.4369134 203.141577,69.595348 C203.141577,72.7783985 200.599957,74.8757357 196.75061,74.8757357 L194.233856,74.8757357 L194.233856,80.180989 L191.149253,80.180989 L191.149253,64.364188 Z M194.233856,67.103206 L194.233856,72.1367138 L197.046714,72.1367138 C198.749246,72.1367138 199.884437,71.1250899 199.884437,69.595348 C199.884437,68.090218 198.749246,67.103206 197.046714,67.103206 L194.233856,67.103206 Z M209.94993,80.2056008 C209.505902,80.3537795 208.938306,80.4524807 208.494278,80.4524807 C206.791492,80.4524807 205.064347,79.3667675 205.064347,76.3562538 L205.064347,63.2043855 L208.074861,63.2043855 L208.074861,76.4303431 C208.074861,77.3432659 208.592979,77.688847 209.135709,77.688847 C209.283887,77.688847 209.48129,77.6393695 209.629215,77.5655339 L209.94993,80.2056008 Z M220.485332,68.3614561 L223.495846,68.3614561 L223.495846,80.180989 L220.485332,80.180989 L220.485332,78.5030685 C219.695723,79.7120948 218.462085,80.5017045 216.858,80.5017045 C213.749039,80.5017045 211.207419,77.9603387 211.207419,74.2589166 C211.207419,70.7056732 213.601114,68.0407406 216.858,68.0407406 C218.462085,68.0407406 219.695723,68.7562609 220.485332,69.9160635 L220.485332,68.3614561 Z M220.485332,74.2589166 C220.485332,72.3589818 219.177605,70.8538518 217.351759,70.8538518 C215.52566,70.8538518 214.217933,72.3589818 214.217933,74.2589166 C214.217933,76.1588514 215.52566,77.6888469 217.351759,77.6888469 C219.177605,77.6888469 220.485332,76.1588514 220.485332,74.2589166 Z M225.640631,68.3614561 L227.713356,68.3614561 L227.713356,65.3017226 L230.748228,65.3017226 L230.748228,68.3614561 L233.931532,68.3614561 L233.931532,71.0263887 L230.773094,71.0263887 L230.773094,76.0601502 C230.773094,77.170729 231.217122,77.6888469 232.105433,77.6888469 C232.673028,77.6888469 233.216012,77.441967 233.511862,77.0966397 L234.844455,79.3421556 C234.203024,79.9835866 233.092445,80.5017045 231.636793,80.5017045 C229.243098,80.5017045 227.713356,79.0211864 227.713356,76.1342395 L227.713356,71.0263887 L225.640631,71.0263887 L225.640631,68.3614561 L225.640631,68.3614561 Z M245.601618,64.0926963 L244.1211,66.362824 C243.775772,65.9926311 243.134088,65.6965274 242.492657,65.6965274 C241.505645,65.6965274 240.888825,66.362824 240.888825,67.6459357 L240.888825,68.361456 L243.948309,68.361456 L243.948309,71.0263886 L240.888825,71.0263886 L240.888825,80.1809889 L237.8537,80.1809889 L237.8537,71.0263886 L235.9289,71.0263886 L235.9289,68.361456 L237.8537,68.361456 L237.8537,67.6705476 C237.8537,64.6849035 239.556232,62.8836699 242.196553,62.8836699 C243.800384,62.8836699 244.836874,63.3276985 245.601618,64.0926963 Z M250.90611,68.0407406 C254.335787,68.0407406 257.050197,70.8289862 257.050197,74.2589166 C257.050197,77.7134588 254.335787,80.5017045 250.90611,80.5017045 C247.47618,80.5017045 244.761769,77.7134588 244.761769,74.2589166 C244.761769,70.8289862 247.47618,68.0407406 250.90611,68.0407406 Z M250.90611,70.8538518 C249.080011,70.8538518 247.772283,72.3589818 247.772283,74.2589166 C247.772283,76.1588514 249.080011,77.6888469 250.90611,77.6888469 C252.731955,77.6888469 254.039683,76.1588514 254.039683,74.2589166 C254.039683,72.3589818 252.731955,70.8538518 250.90611,70.8538518 Z M266.943153,68.608336 L265.709261,71.4460591 C265.314456,71.1497017 264.722249,70.9522993 264.130042,70.9522993 C262.945627,70.9522993 262.156018,71.964177 262.156018,73.5680082 L262.156018,80.180989 L259.145758,80.180989 L259.145758,68.3614561 L262.156018,68.3614561 L262.156018,70.1134659 C262.723613,68.8549621 263.735237,68.0407406 265.06783,68.0407406 C265.85744,68.0407406 266.498871,68.238143 266.943153,68.608336 Z M287.37278,73.0252784 L287.37278,80.180989 L284.337655,80.180989 L284.337655,73.469307 C284.337655,71.8654758 283.449598,70.8538519 282.018303,70.8538519 C280.587009,70.8538519 279.674086,71.8654758 279.674086,73.469307 L279.674086,80.180989 L276.663826,80.180989 L276.663826,73.469307 C276.663826,71.8654758 275.775515,70.8538519 274.344221,70.8538519 C272.91318,70.8538519 272.000258,71.8654758 272.000258,73.469307 L272.000258,80.180989 L268.989744,80.180989 L268.989744,68.3614561 L272.000258,68.3614561 L272.000258,70.1626897 C272.617077,68.8798277 273.776879,68.0407406 275.331233,68.0407406 C277.13272,68.0407406 278.514537,68.9290515 279.205192,70.4836589 C279.822265,69.101842 280.957202,68.0407406 282.832525,68.0407406 C285.571547,68.0407406 287.37278,69.8668398 287.37278,73.0252784 Z M289.615505,79.3667675 L290.577905,77.0471622 C291.934856,77.688847 293.070047,78.0341743 294.377775,78.0341743 C295.710368,78.0341743 296.327187,77.5655339 296.327187,76.8743717 C296.327187,74.7524226 289.960832,76.0109265 289.960832,71.5445066 C289.960832,69.7678849 291.540052,68.0407406 294.575177,68.0407406 C296.228486,68.0407406 297.48699,68.386068 298.99212,69.101842 L297.881794,71.3471042 C297.042707,70.8784637 295.784457,70.5082708 294.822057,70.5082708 C293.686866,70.5082708 292.995958,70.8784637 292.995958,71.5198947 C292.995958,73.6913212 299.312835,72.3341162 299.312835,76.825148 C299.312835,78.8732614 297.48699,80.5017045 294.22985,80.5017045 C292.329661,80.5017045 290.775308,80.0081984 289.615505,79.3667675 Z" id="Modifier_00000086677932515325637440000004565800953372432286_" fill="#5009B5"></path>
                        <path d="M96.9289455,23.3977778 C91.1038696,23.3977778 87.1717033,27.8392747 87.1717033,33.4457854 C87.1717033,39.0522961 91.1767299,43.5666513 96.8560932,43.5666513 C100.423997,43.5666513 103.263346,42.3287829 105.447673,40.1444597 L109.962682,46.6980795 C107.19552,49.7559971 102.171186,51.9403204 96.637528,51.9403204 C86.298101,51.9403204 78.2887058,43.6395037 78.2887058,33.5186417 C78.2887058,23.3249234 86.2981009,15.0241068 96.4918232,15.0241068 C102.462604,15.0241068 107.19552,17.0627182 110.253442,20.2663467 L105.156906,26.6014033 C102.972587,24.4899375 100.351137,23.3977778 96.9289455,23.3977778 Z M138.034763,47.1352098 C135.486055,50.1210759 131.917976,51.9412124 127.403411,51.9412124 C118.155699,51.9412124 110.655264,44.3685748 110.655264,33.5186418 C110.655264,22.9601421 117.718545,15.0232148 127.403411,15.0232148 C131.990836,15.0232148 135.558907,16.6976366 138.034763,19.537784 L138.034763,16.0425705 L146.991057,16.0425705 L146.991057,50.9218586 L138.034763,50.9218586 L138.034763,47.1352098 Z M138.034763,33.4457855 C138.034763,27.8390011 134.175267,23.3972902 128.859912,23.3972902 C123.471046,23.3972902 119.53934,27.8390011 119.53934,33.4457855 C119.53934,39.0525698 123.471046,43.567139 128.859912,43.567139 C134.175267,43.567139 138.034763,39.0525698 138.034763,33.4457855 Z M162.27942,50.9218577 L153.395328,50.9218577 L153.395328,16.0425706 L162.27942,16.0425706 L162.27942,19.8292175 C164.245261,16.9162097 167.158279,15.0232149 170.799202,15.0232149 C173.129353,15.0232149 175.022342,15.6782799 176.405983,16.770493 L172.692207,25.2174267 C171.527124,24.2709283 169.779189,23.6880655 168.104774,23.6880655 C164.536703,23.6880655 162.27942,26.6739297 162.27942,31.4070739 L162.27942,50.9218577 L162.27942,50.9218577 Z M175.166096,33.5186418 C175.166096,23.3244319 182.738734,15.0232149 192.787227,15.0232149 C202.763518,15.0232149 210.336156,22.7415671 210.336156,32.7907185 C210.336156,33.8829316 210.263303,35.1208634 210.118233,35.7030681 L184.268095,35.7030681 C185.141721,40.5819311 188.855513,44.0771455 194.24372,44.0771455 C197.738939,44.0771455 200.724809,42.5477843 202.763518,40.4362144 L207.350952,46.4801448 C204.729375,49.5382131 199.777648,51.9412125 193.879442,51.9412125 C183.030159,51.9412125 175.166096,43.6399954 175.166096,33.5186418 Z M184.4138,30.0962857 L201.234157,30.0962857 C200.214794,25.1445684 197.08387,22.5958524 192.932932,22.5958524 C188.491219,22.5958524 185.433163,25.6545748 184.4138,30.0962857 Z M213.975113,0.823782676 L222.859188,0.823782676 L222.859188,50.9218563 L213.975113,50.9218563 L213.975113,27.255909 L213.975113,0.823782676 Z M226.935957,33.5186418 C226.935957,23.3244319 234.945741,15.0232149 245.067103,15.0232149 C255.188448,15.0232149 263.2711,23.3244319 263.2711,33.5186418 C263.2711,43.6399954 255.188448,51.9412125 245.067103,51.9412125 C234.945741,51.9412125 226.935957,43.6399954 226.935957,33.5186418 Z M254.314806,33.4457855 C254.314806,27.8390011 250.45531,23.3972902 245.139955,23.3972902 C239.751098,23.3972902 235.819383,27.8390011 235.819383,33.4457855 C235.819383,39.0525698 239.751097,43.567139 245.139955,43.567139 C250.45531,43.567139 254.314806,39.0525698 254.314806,33.4457855 Z M276.229979,50.9218577 L267.346553,50.9218577 L267.346553,16.0425706 L276.229979,16.0425706 L276.229979,19.4649277 C278.414409,16.6247783 281.763907,15.0232148 286.059883,15.0232148 C294.142535,15.0232148 299.312835,20.7028555 299.312835,29.8048543 L299.312835,50.9218577 L290.429409,50.9218577 L290.429409,31.1156425 C290.429409,26.3824982 287.662128,23.3972903 283.36612,23.3972903 C278.924407,23.3972903 276.229979,26.3824982 276.229979,31.1156425 L276.229979,50.9218577 Z" id="Wordmark" fill="#5009B5"></path>
                        <g id="Symbol">
                            <path d="M16.1574481,0 C7.23392153,0 0,7.23395328 0,16.1574798 C0,25.0810064 7.23392153,32.309334 16.1574481,32.309334 C17.0042006,32.309334 18.0273872,32.2355143 18.8350394,32.0960953 L19.4095034,33.4785366 L16.1722596,41.3382663 C17.2427134,41.3398522 18.3311206,41.5243222 19.3951359,41.9115865 C20.150034,42.186353 20.8486693,42.5472927 21.4841535,42.9790272 L25.3961799,33.4785366 L21.5067038,23.9681782 C19.0733321,25.6316797 15.900983,26.1379476 12.919792,25.0528726 C8.00699558,23.2647874 5.47396823,17.8326213 7.26205491,12.9198238 C9.05017231,8.00705908 14.4823384,5.47400003 19.3951037,7.26211841 C23.2438838,8.66293782 25.6319645,12.300293 25.6261605,16.1723226 L32.0900845,18.8345653 C32.2354126,17.9633911 32.3148957,17.0699185 32.3148957,16.1574794 C32.3148957,7.23395328 25.0809732,0 16.1574481,0 Z" id="Purple" fill="#5009B5"></path>
                            <path d="M50.8102796,1.20036906e-05 C41.8867526,1.20036906e-05 34.6527978,7.23396529 34.6527978,16.1574919 C34.6527978,17.0042444 34.7317199,18.0266579 34.8719298,18.8350693 L33.4844357,19.4089445 L25.6261609,16.1724937 C25.6245434,17.242884 25.440107,18.3312277 25.0528408,19.3951796 C24.7782329,20.1496674 24.4175152,20.8479202 23.9860978,21.4831189 L33.4844357,25.3956211 L42.9995793,21.5067159 C41.3360778,19.0733442 40.8298099,15.9010267 41.9148849,12.9198368 C43.7029721,8.00703939 49.1351065,5.4739808 54.047902,7.26209867 C58.9606974,9.05018535 61.4937575,14.4823505 59.7056386,19.3951157 C58.3048197,23.2438958 54.6674646,25.6320083 50.7954364,25.6262042 L48.1316337,32.0900965 C49.0028098,32.2354564 49.8978406,32.3149395 50.8102796,32.3149395 C59.7338067,32.3149395 66.9677614,25.0809867 66.9677614,16.1574914 C66.9677614,7.23396518 59.7338067,1.20036906e-05 50.8102796,1.20036906e-05 Z" id="Cyan" fill="#44B8F3"></path>
                            <path d="M33.4844358,41.5684713 L23.9681781,45.4577214 C25.6316796,47.8910654 26.1379158,51.0634433 25.0528725,54.0446352 C23.2647556,58.957399 17.8326212,61.490459 12.9198238,59.7023401 C8.00702733,57.9142569 5.47396823,52.4820908 7.26208666,47.5692914 C8.66293782,43.720543 12.3002929,41.3324305 16.1723226,41.3382663 L18.8345335,34.8743443 C17.9633594,34.7290161 17.0699184,34.6476122 16.1574476,34.6476122 C7.23395328,34.6476122 0,41.8834541 0,50.8069494 C0,59.7304725 7.23395328,66.9644312 16.1574481,66.9644312 C25.0809732,66.9644312 32.3148784,59.7304725 32.3148784,50.8069494 C32.3148784,49.9602266 32.2428744,48.9853619 32.0932269,48.1293937 L33.4844357,47.5554947 L41.3415965,50.7922647 C41.3431823,49.7217792 41.5276207,48.6333701 41.9149166,47.5692913 C42.1895245,46.8148036 42.5502422,46.116521 42.9816596,45.4813223 L33.4844358,41.5684713 Z" id="Light_Purple" fill="#794CFF"></path>
                            <path d="M50.8102796,34.6476281 C49.9635568,34.6476281 48.950125,34.7269149 48.1316377,34.8686988 L47.558825,33.4799638 L50.7952461,25.6261927 C49.7248558,25.6245751 48.6365735,25.4401071 47.5726216,25.0528725 C46.8177215,24.7781061 46.1190901,24.4171663 45.483606,23.9854001 L41.5718333,33.4799638 L45.4610517,42.9962491 C47.8943956,41.3327477 51.0667735,40.8264797 54.0479655,41.9115548 C58.9607292,43.6996419 61.4937893,49.1318081 59.7056704,54.0446035 C57.9175872,58.9573673 52.4854211,61.4904273 47.5726533,59.7023084 C43.7238733,58.3014895 41.3357925,54.6641027 41.3415966,50.7921062 L34.8776746,48.1298379 C34.7323464,49.001014 34.652794,49.8945104 34.652794,50.8069495 C34.652794,59.7304726 41.8867844,66.9644313 50.8102797,66.9644313 C59.7338385,66.9644313 66.9677615,59.7304726 66.9677615,50.8069495 C66.9677615,41.8834264 59.7338384,34.6476281 50.8102796,34.6476281 Z" id="Turquoise" fill="#00BBBA"></path>
                        </g>
                    </g>
                </g>
            </g>
        </g>
    </g>
</svg>